<svg width="0" height="0" class="hidden">
  <symbol fill="inherit" xmlns="http://www.w3.org/2000/svg" viewBox="0 0 13 13" id="search">
    <g clip-path="url(#clip0_9_19)">
      <path d="M12.8416 12.0758L9.60783 8.84204C10.4886 7.76481 10.9216 6.39027 10.8173 5.00273C10.7131 3.61519 10.0795 2.3208 9.04763 1.3873C8.01577 0.453803 6.66459 -0.0473866 5.27357 -0.0126007C3.88255 0.0221852 2.55811 0.590285 1.57421 1.57419C0.5903 2.5581 0.0222005 3.88254 -0.0125854 5.27356C-0.0473713 6.66458 0.453818 8.01576 1.38732 9.04761C2.32081 10.0795 3.6152 10.7131 5.00274 10.8173C6.39029 10.9216 7.76483 10.4886 8.84205 9.60782L12.0758 12.8416C12.1791 12.9339 12.3139 12.9832 12.4524 12.9793C12.5909 12.9754 12.7227 12.9186 12.8207 12.8207C12.9187 12.7227 12.9754 12.5909 12.9793 12.4524C12.9832 12.3139 12.9339 12.1791 12.8416 12.0758ZM5.41737 9.75001C4.55987 9.75041 3.72153 9.49647 3.00838 9.02033C2.29523 8.54418 1.73933 7.86721 1.411 7.07507C1.08266 6.28293 0.996649 5.4112 1.16384 4.57016C1.33103 3.72913 1.74391 2.95657 2.35025 2.35023C2.95659 1.74389 3.72914 1.33101 4.57018 1.16382C5.41121 0.996633 6.28294 1.08265 7.07509 1.41098C7.86723 1.73931 8.5442 2.29522 9.02034 3.00836C9.49649 3.72151 9.75042 4.55986 9.75002 5.41735C9.74841 6.56595 9.29142 7.66704 8.47924 8.47922C7.66705 9.2914 6.56596 9.74839 5.41737 9.75001Z"></path>
    </g>
    <defs>
      <clipPath id="clip0_9_19">
        <rect width="13" height="13" fill="white"></rect>
      </clipPath>
    </defs>
  </symbol>

  <svg fill="inherit" viewBox="0 0 36 36" version="1.1" preserveAspectRatio="xMidYMid meet" xmlns="http://www.w3.org/2000/svg" xmlns:xlink="http://www.w3.org/1999/xlink" id='library'><g id="SVGRepo_bgCarrier" stroke-width="0"></g><g id="SVGRepo_tracerCarrier" stroke-linecap="round" stroke-linejoin="round"></g><g id="SVGRepo_iconCarrier"> <title>library-line</title> <path d="M33.48,29.63,26.74,11.82a2,2,0,0,0-2.58-1.16L21,11.85V8.92A1.92,1.92,0,0,0,19.08,7H14V4.92A1.92,1.92,0,0,0,12.08,3H5A2,2,0,0,0,3,5V32a1,1,0,0,0,1,1H20a1,1,0,0,0,1-1V19.27l5,13.21a1,1,0,0,0,1.29.58l5.61-2.14a1,1,0,0,0,.58-1.29ZM12,8.83V31H5V5h7ZM19,31H14V9h5Zm8.51-.25L21.13,13.92l3.74-1.42,6.39,16.83Z" class="clr-i-outline clr-i-outline-path-1"></path> <rect x="0" y="0" width="36" height="36" fill-opacity="0"></rect> </g></svg>

  <symbol fill="inherit" xmlns="http://www.w3.org/2000/svg" viewBox="0 0 24 24" id="heart">
    <path d="M3 12C0.75 9 1.5 4.5 5.25 3C9 1.5 11.25 4.5 12 6C12.75 4.5 15.75 1.5 19.5 3C23.25 4.5 23.25 9 21 12C18.75 15 12 21 12 21C12 21 5.25 15 3 12Z" stroke-width="2" stroke-linecap="round" stroke-linejoin="round"></path>
  </symbol>

  <symbol viewBox="0 0 24 24" fill="none" id="svg-Arrow_Down" xmlns="http://www.w3.org/2000/svg">
<path d="M5.707 9.71a1 1 0 0 0 0 1.415l4.892 4.887a2 2 0 0 0 2.828 0l4.89-4.89a1 1 0 1 0-1.414-1.415l-4.185 4.186a1 1 0 0 1-1.415 0L7.121 9.71a1 1 0 0 0-1.414 0Z" fill="#fff"/>
</symbol>

<symbol fill="#fff" viewBox="0 0 24 24" id="svg-genres" xmlns="http://www.w3.org/2000/svg">
<path d="M9.103.435a1.753 1.753 0 0 1 1.652-.362c.218.072.406.203.609.333.16.101.348.145.493.261.072.058.014.16.014.232.189.45.29.942.13 1.42-.13.16-.362.203-.55.276-.03.203.043.39.072.594-.043.029-.072.058-.116.087.276-.015.551-.073.827-.13.101-.102.26-.044.39-.059.015-.203.088-.391.088-.594a.34.34 0 0 0 .116-.029c.014.145 0 .29.043.435.073.058.189.029.276.043 0 .058 0 .116.014.174 1.681-.014 3.377 0 5.058 0v.247h.16V2.42h.188c0 .26-.014.507 0 .768a.11.11 0 0 0 .073.029c0 .029.014.087.014.116.058-.058.13-.102.218-.073.014.044.029.087.043.145-.058.058-.087.13-.058.218.464.014.928 0 1.406 0 .044-.058.116-.087.189-.116a.464.464 0 0 1 .087.058h.68a.874.874 0 0 1 .015.333h-.696a.46.46 0 0 1-.087.073c-.072-.044-.13-.073-.202-.116h-1.261c-.247.072-.508.058-.754.014v.275H16.16a.532.532 0 0 1-.29.13c.044.218-.202.276-.29.436a.45.45 0 0 1-.231.174c-.073.449.087.87.203 1.29-.13.029-.276.072-.406.101-.073.29-.145.594-.203.884a.848.848 0 0 1-.507.58c-.174.203-.406.406-.682.42-.101.03-.174-.043-.246-.101-.362.029-.696-.145-1.015-.29-.347-.16-.666-.363-1-.55.03.202-.072.376-.145.55.16.072.377.13.464.304.058.13.116.276.116.435-.014.522-.072 1.044-.101 1.565.014.377-.174.754-.435 1.03-.174-.015-.319-.088-.478-.16-.058.13-.189.26-.116.42.058.189.058.392.145.566a6.674 6.674 0 0 1 1.217 1.753c.304.624.536 1.276.783 1.928.043 0 .13-.015.174-.015.058.189 0 .406.116.58.101.16.072.348.072.536-.029.435-.058.87-.101 1.305-.03.304-.102.609-.145.913.014.232.116.464.101.696-.014.217-.014.449-.188.608.014.493-.116.986.058 1.464.232.32.493.623.768.899.304.145.667.174.928.435.1.16.043.347.014.521a6.732 6.732 0 0 1-1.87 0c-.246-.058-.478-.159-.724-.188-.334.014-.725.145-1.03-.087-.028-.391.117-.768.189-1.145.029-.13.16-.217.145-.348-.03-.45-.058-.913-.087-1.362-.058-.03-.16-.058-.145-.145 0-.218-.072-.435-.13-.638a10.821 10.821 0 0 1-.16-1.681c-.014-.16.087-.276.203-.377.03-.246.058-.507.073-.754-.044-.13-.145-.232-.203-.348-.261.03-.638.087-.797-.188-.377-.565-.769-1.145-1.145-1.71-.16-.015-.348 0-.493-.102-.16-.174-.261-.405-.363-.623-.043.174-.072.362-.174.507-.087.145-.231.247-.333.377-.101.232-.188.464-.275.696-.102.29-.247.58-.276.899a1.543 1.543 0 0 1-.101.449c-.073.116-.203.16-.319.217-.087.189-.145.377-.275.537-.087.101-.232.13-.29.26-.058.174-.145.334-.218.493-.029.174.087.363.03.536-.102.435-.32.841-.522 1.232-.102.29-.174.595-.32.87-.057.116-.202.145-.318.16-.13.318-.276.623-.362.956a5.437 5.437 0 0 0-.03.971c0 .145.088.261.146.391.057.174.014.348-.015.522-.565.073-1.145.13-1.696-.043-.058-.044-.043-.116-.058-.174-.043-.261-.072-.536.015-.783.188-.681.348-1.362.536-2.043-.072-.073-.174-.13-.174-.247-.014-.188 0-.391.044-.58.087-.319.318-.565.434-.87.044-.13.03-.26.044-.39 0-.305.174-.551.304-.812.13-.218.232-.45.406-.638.116-.101.116-.26.203-.391.087-.16.232-.29.232-.479.029-.231-.058-.463-.03-.695.059-.681.19-1.348.305-2.03-.058-.072-.145-.144-.174-.246.015-.072.03-.13.044-.203l-.13-.217c.057-.087.115-.188.173-.275-.058-.044-.13-.102-.188-.145.072-.218.043-.537.304-.638.03.014.102.029.13.043-.043-.376-.043-.768-.086-1.145a3.534 3.534 0 0 1-.073-1.232c.145-.217.42-.304.667-.318-.319-.073-.638-.102-.942-.203-.015-.261.029-.522.072-.783.13-.507.073-1.029.145-1.55.073-.146.261-.175.42-.146.189.03.377-.029.566-.087 0-.072.014-.16 0-.232-.116-.507-.087-1.029 0-1.521.116-.638.377-1.261.855-1.71.319-.305.783-.45 1.217-.435.145 0 .232.145.348.232.058-.058.116-.116.16-.174-.073-.247-.189-.508-.174-.769.029-.58.217-1.174.652-1.565m4.522 4.102c.029.029.029.029 0 0m.203.029c.014.101.043.203-.015.29-.072.029-.16.029-.232.072.203 0 .406.015.61 0 .159-.043.1-.246.1-.362-.1-.116-.318-.044-.463 0m-.507.609c.145.159.217.405.347.565.189-.247.334-.508.551-.725-.26-.015-.522.015-.782-.015-.044.058-.073.116-.116.174z"/>
</symbol>

<symbol fill="#fff" viewBox="0 0 512 512" id="svg-creators" xmlns="http://www.w3.org/2000/svg">
<path d="M332.64 64.58C313.18 43.57 286 32 256 32c-30.16 0-57.43 11.5-76.8 32.38-19.58 21.11-29.12 49.8-26.88 80.78C156.76 206.28 203.27 256 256 256s99.16-49.71 103.67-110.82c2.27-30.7-7.33-59.33-27.03-80.6ZM432 480H80a31 31 0 0 1-24.2-11.13c-6.5-7.77-9.12-18.38-7.18-29.11C57.06 392.94 83.4 353.61 124.8 326c36.78-24.51 83.37-38 131.2-38s94.42 13.5 131.2 38c41.4 27.6 67.74 66.93 76.18 113.75 1.94 10.73-.68 21.34-7.18 29.11A31 31 0 0 1 432 480Z"/>
</symbol>

<symbol viewBox="0 0 64 64" xml:space="preserve" fill="#fff" id="svg-publishers" xmlns="http://www.w3.org/2000/svg">
<path d="M60 52V4c0-2.211-1.789-4-4-4H14v54h42v8H10a4 4 0 0 1 0-8h2V0H8C5.789 0 4 1.789 4 4v54a6 6 0 0 0 6 6h49a1 1 0 1 0 0-2h-1v-8a2 2 0 0 0 2-2zM23 14h12a1 1 0 1 1 0 2H23a1 1 0 1 1 0-2zm19 14H23a1 1 0 1 1 0-2h19a1 1 0 1 1 0 2zm7-6H23a1 1 0 1 1 0-2h26a1 1 0 1 1 0 2z"/>
</symbol>

<symbol fill="#fff" viewBox="0 0 512 512" xml:space="preserve" id="svg-stores" xmlns="http://www.w3.org/2000/svg">
<path d="M425.228 100.457s-.425-2.308-1.734-3.144c-1.311-.836-2.732-.998-2.732-.998l-41.082-3.057-30.228-30.053c-1.147-.874-2.471-1.385-3.817-1.66-3.219-.624-7.548.125-8.347.312l-15.682 4.853c-6.812-20.11-16.118-34.432-27.795-42.716-8.634-6.101-18.146-8.695-28.363-7.922-2.146-2.857-4.51-5.352-7.099-7.448-11.334-9.157-25.955-10.579-43.446-4.241-52.454 19.05-74.722 87.029-82.75 120.987l-45.716 14.16s-10.767 3.069-13.293 6.088c-2.775 3.318-3.306 12.301-3.306 12.301l-38.78 299.087L323.215 511.5l157.728-34.133-55.715-376.91zM263.326 84.763l-50.513 15.632c6.693-26.211 19.555-52.996 44.145-63.438 5.108 13.374 6.518 31.675 6.368 47.806zm-42.429-63.862c10.685-3.88 18.894-3.706 25.069.461-32.96 15.033-47.351 52.909-53.563 85.357l-40.445 12.525c9.032-32.66 29.186-83.909 68.939-98.343zm28.307 220.417a89 89 0 0 0-8.134-3.456 88.816 88.816 0 0 0-10.174-3.131 86.165 86.165 0 0 0-11.758-2.046 78.768 78.768 0 0 0-12.918-.312c-4.11.25-7.834.985-11.109 2.158-3.256 1.148-6.075 2.745-8.396 4.729-2.32 1.971-4.148 4.329-5.439 7.049-1.279 2.707-2.034 5.751-2.177 9.132a17.972 17.972 0 0 0 1.16 7.235c.879 2.346 2.258 4.641 4.129 6.912 1.884 2.295 4.267 4.565 7.167 6.886 2.913 2.358 6.351 4.729 10.317 7.211 5.564 3.568 11.253 7.585 16.661 12.188 5.489 4.679 10.679 9.956 15.139 15.969 4.517 6.076 8.271 12.888 10.804 20.522 2.545 7.71 3.849 16.206 3.438 25.562-.667 15.308-4.023 28.506-9.569 39.447-5.477 10.804-13.037 19.287-22.144 25.45-8.907 6.013-19.225 9.743-30.446 11.24-10.897 1.459-22.581.811-34.632-1.847-.088-.013-.188-.05-.287-.075-.094-.012-.188-.037-.281-.049-.093-.025-.187-.051-.287-.075-.094-.013-.188-.038-.287-.062a115.418 115.418 0 0 1-16.225-5.228c-5.046-2.033-9.781-4.354-14.097-6.861-4.254-2.482-8.109-5.14-11.446-7.896-3.3-2.732-6.107-5.539-8.309-8.371l13.292-44.113a112.641 112.641 0 0 0 8.115 6.237 120.361 120.361 0 0 0 10.504 6.637c3.842 2.146 7.947 4.13 12.17 5.751 4.279 1.635 8.683 2.907 13.049 3.543 3.855.562 7.298.449 10.311-.224 3.038-.687 5.626-1.946 7.748-3.681 2.133-1.709 3.786-3.893 4.94-6.4 1.154-2.532 1.809-5.364 1.934-8.396.137-3.044-.138-5.901-.905-8.671-.761-2.781-2.008-5.464-3.799-8.158-1.791-2.683-4.111-5.377-7.048-8.159-2.907-2.757-6.394-5.602-10.523-8.62-5.084-3.793-9.85-7.897-14.122-12.363-4.217-4.417-7.959-9.195-11.022-14.372-3.031-5.14-5.42-10.691-6.967-16.729-1.541-6.001-2.251-12.501-1.953-19.587.524-11.839 2.889-22.755 6.85-32.573 4.004-9.931 9.674-18.838 16.785-26.511 7.255-7.822 16.075-14.422 26.242-19.499 10.461-5.228 22.419-8.895 35.674-10.629a139.388 139.388 0 0 1 17.628-1.21c5.664-.025 10.985.312 15.881.936 4.965.636 9.488 1.559 13.499 2.694 4.042 1.147 7.548 2.495 10.436 3.967l-19.419 57.849zm31.632-161.969a256.363 256.363 0 0 0-.149-6.038c-.587-15.719-2.721-28.956-6.351-39.685 3.955.399 7.548 1.709 10.829 4.03 9.145 6.475 15.731 19.511 20.372 34.045l-24.701 7.648z"/>
</symbol>

<symbol viewBox="0 0 24 24" fill="none" id="svg-developers" xmlns="http://www.w3.org/2000/svg">
<path d="m7 8-4 3.692L7 16m10-8 4 3.692L17 16M14 4l-4 16" stroke="#fff" stroke-width="2" stroke-linecap="round" stroke-linejoin="round"/>
</symbol>

<symbol viewBox="0 0 24 24" fill="none" id="svg-tags" xmlns="http://www.w3.org/2000/svg">
<path d="M10 4 7 20M17 4l-3 16M5 8h15M4 16h15" stroke="#fff" stroke-width="2" stroke-linecap="round"/>
</symbol>

<symbol viewBox="0 0 24 24" fill="none" id="svg-Arrow_Up" xmlns="http://www.w3.org/2000/svg">
<path d="M18.293 15.29a1 1 0 0 0 0-1.415L13.4 8.988a2 2 0 0 0-2.828 0l-4.89 4.89a1 1 0 1 0 1.414 1.415l4.185-4.186a1 1 0 0 1 1.415 0l4.182 4.182a1 1 0 0 0 1.414 0Z" fill="#fff"/>
</symbol>

<symbol viewBox="0 0 24 24" fill="none" id="svg-platforms" xmlns="http://www.w3.org/2000/svg">
<path fill-rule="evenodd" clip-rule="evenodd" d="m10.667 6.134-.502-.355A4.241 4.241 0 0 0 7.715 5h-.612c-.405 0-.813.025-1.194.16-2.383.846-4.022 3.935-3.903 10.943.024 1.412.354 2.972 1.628 3.581A3.2 3.2 0 0 0 5.027 20a2.74 2.74 0 0 0 1.53-.437c.41-.268.77-.616 1.13-.964.444-.43.888-.86 1.424-1.138a4.106 4.106 0 0 1 1.89-.461H13c.658 0 1.306.158 1.89.46.536.279.98.709 1.425 1.139.36.348.72.696 1.128.964.39.256.895.437 1.531.437a3.2 3.2 0 0 0 1.393-.316c1.274-.609 1.604-2.17 1.628-3.581.119-7.008-1.52-10.097-3.903-10.942C17.71 5.025 17.3 5 16.897 5h-.612a4.24 4.24 0 0 0-2.45.78l-.502.354a2.308 2.308 0 0 1-2.666 0ZM16.75 9a.75.75 0 1 1 0 1.5.75.75 0 0 1 0-1.5Zm-9.25.25a.75.75 0 0 1 .75.75v.75H9a.75.75 0 0 1 0 1.5h-.75V13a.75.75 0 0 1-1.5 0v-.75H6a.75.75 0 0 1 0-1.5h.75V10a.75.75 0 0 1 .75-.75Zm11.5 2a.75.75 0 1 1-1.5 0 .75.75 0 0 1 1.5 0Zm-3.75.75a.75.75 0 1 0 0-1.5.75.75 0 0 0 0 1.5Zm2.25.75a.75.75 0 1 0-1.5 0 .75.75 0 0 0 1.5 0Z" fill="#fff"/>
</symbol>

  <symbol viewBox="0 0 20 20" fill="#fff" stroke="#fff" id="svg-windows" xmlns="http://www.w3.org/2000/svg">
<path d="M9.146 10.434c.005 2 .01 5.395.016 8.035 3.614.489 7.228.992 10.836 1.531 0-3.151.004-6.289 0-9.287-3.617 0-7.233-.279-10.852-.279M0 10.435v6.787c2.726.367 5.452.72 8.172 1.12.005-2.625-.002-5.251-.002-7.877-2.723.005-5.446-.039-8.17-.03m0-7.592v6.768c2.726.007 5.452-.034 8.177-.031-.002-2.62-.002-5.236-.005-7.856-2.727.34-5.455.702-8.172 1.12m20 6.628c-3.612.014-7.224.069-10.838.08-.002-2.663-.002-5.322 0-7.983A791.79 791.79 0 0 1 19.998 0c.002 3.158 0 6.314.002 9.472" fill="#fff" stroke="none" fill-rule="evenodd"/>
</symbol>

<symbol fill="#fff" viewBox="0 0 24 24" id="svg-xbox" xmlns="http://www.w3.org/2000/svg">
<path d="M24 12v-.002c0-3.618-1.606-6.861-4.144-9.054l-.015-.013a20.22 20.22 0 0 0-4.967 3.713l-.004.004c.044.046.087.085.131.132 3.719 4.012 7.106 9.73 6.546 12.471a11.85 11.85 0 0 0 2.452-7.246v-.006zM12.591 3.955a12.722 12.722 0 0 1 5.872-2.022l.048-.003A11.834 11.834 0 0 0 12 .001c-2.171 0-4.207.579-5.962 1.591l.058-.031c.658.567 2.837.781 5.484 2.4a.954.954 0 0 0 1.015-.007l-.004.002zM9.166 6.778c.046-.049.093-.09.138-.138a28.609 28.609 0 0 0-3.806-3.1l-.099-.064a1.845 1.845 0 0 0-1.516-.305l.013-.002A11.953 11.953 0 0 0 0 12.009c0 2.909 1.037 5.576 2.762 7.651l-.016-.02c-1.031-2.547 2.477-8.672 6.419-12.862zM12.084 9.198c-3.962 3.503-9.477 8.73-8.632 11.218A11.936 11.936 0 0 0 11.994 24a11.94 11.94 0 0 0 8.826-3.883l.008-.009c.486-2.618-4.755-7.337-8.744-10.91z"/>
</symbol>

<symbol fill="#fff" viewBox="0 0 14 14" id="svg-ps" xmlns="http://www.w3.org/2000/svg">
<path d="M5.492 2.298v8.774l1.958.63V4.344c0-.345.152-.576.397-.496.318.09.38.407.38.753v2.938c1.22.596 2.18-.001 2.18-1.577 0-1.618-.563-2.337-2.218-2.913-.654-.224-1.864-.593-2.696-.751zm2.328 8.12 3.148-1.137c.357-.129.413-.312.123-.409-.293-.096-.819-.07-1.179.062l-2.102.75V8.49l.12-.043s.6-.21 1.456-.307c.848-.09 1.893.014 2.719.33.924.3 1.02.736.788 1.036-.233.3-.811.518-.811.518L7.81 11.58V10.43l.01-.011zM1.904 10.3c-.95-.273-1.107-.834-.676-1.16.4-.293 1.08-.526 1.08-.526l2.807-1.007v1.157L3.103 9.5c-.353.135-.413.316-.12.413.293.097.819.075 1.172-.06l.969-.353v1.037c-.06.014-.128.022-.196.036a6.235 6.235 0 0 1-3.018-.24l-.006-.033z"/>
</symbol>

<symbol viewBox="0 0 15 15" fill="none" id="svg-nintendo" xmlns="http://www.w3.org/2000/svg">
<g fill="#fff">
<path d="M3.5 4a.5.5 0 1 0 0 1 .5.5 0 0 0 0-1Z"/>
<path fill-rule="evenodd" clip-rule="evenodd" d="M7 .5v12a.5.5 0 0 1-.5.5h-3A3.5 3.5 0 0 1 0 9.5v-6A3.5 3.5 0 0 1 3.5 0h3a.5.5 0 0 1 .5.5Zm-5 4a1.5 1.5 0 1 1 3 0 1.5 1.5 0 0 1-3 0Z"/>
<path d="M11.5 10a.5.5 0 1 0 0 1 .5.5 0 0 0 0-1Z"/>
<path fill-rule="evenodd" clip-rule="evenodd" d="M15 5.5v6a3.5 3.5 0 0 1-3.5 3.5h-3a.5.5 0 0 1-.5-.5v-12a.5.5 0 0 1 .5-.5h3A3.5 3.5 0 0 1 15 5.5Zm-5 5a1.5 1.5 0 1 1 3 0 1.5 1.5 0 0 1-3 0Z"/>
</g>
</symbol>

<symbol fill="#fff" viewBox="0 0 512 512" xml:space="preserve" id="svg-android" xmlns="http://www.w3.org/2000/svg">
<path d="M120.606 169h270.788v220.663c0 13.109-10.628 23.737-23.721 23.737H340.55v67.203c0 17.066-13.612 30.897-30.415 30.897-16.846 0-30.438-13.831-30.438-30.897V413.4h-47.371v67.203c0 17.066-13.639 30.897-30.441 30.897-16.799 0-30.437-13.831-30.437-30.897V413.4h-27.099c-13.096 0-23.744-10.628-23.744-23.737V169zm-53.065-1.801c-16.974 0-30.723 13.963-30.723 31.2v121.937c0 17.217 13.749 31.204 30.723 31.204 16.977 0 30.723-13.987 30.723-31.204V198.399c0-17.237-13.746-31.2-30.723-31.2zm323.854-20.435H120.606c3.342-38.578 28.367-71.776 64.392-90.998l-25.746-37.804c-3.472-5.098-2.162-12.054 2.946-15.525C167.3-1.034 174.242.286 177.731 5.38l28.061 41.232c15.558-5.38 32.446-8.469 50.208-8.469 17.783 0 34.672 3.089 50.229 8.476L334.29 5.395c3.446-5.108 10.41-6.428 15.512-2.957 5.108 3.471 6.418 10.427 2.946 15.525l-25.725 37.804c36.024 19.21 61.032 52.408 64.372 90.997zm-177.53-52.419c0-8.273-6.699-14.983-14.969-14.983-8.291 0-14.99 6.71-14.99 14.983 0 8.269 6.721 14.976 14.99 14.976s14.969-6.707 14.969-14.976zm116.127 0c0-8.273-6.722-14.983-14.99-14.983-8.291 0-14.97 6.71-14.97 14.983 0 8.269 6.679 14.976 14.97 14.976 8.269 0 14.99-6.707 14.99-14.976zm114.488 72.811c-16.956 0-30.744 13.984-30.744 31.222v121.98c0 17.238 13.788 31.226 30.744 31.226 16.978 0 30.701-13.987 30.701-31.226v-121.98c.001-17.238-13.723-31.222-30.701-31.222z"/>
</symbol>

<symbol fill="#fff" viewBox="0 0 1920 1920" id="svg-Best_Of_The_Year" xmlns="http://www.w3.org/2000/svg">
<path fill-rule="evenodd" clip-rule="evenodd" d="M357.542 0H1562.46v119.181H1920v423.687a423.712 423.712 0 0 1-124.09 299.592 423.743 423.743 0 0 1-237.96 119.589A423.635 423.635 0 0 1 1438.36 1200c-77.91 77.91-183.04 122.35-293.03 124.05v172.26c0 14.07 5.58 27.56 15.53 37.5a53.038 53.038 0 0 0 37.5 15.54c64.96 0 127.25 25.8 173.18 71.73a244.93 244.93 0 0 1 71.74 173.18V1920H476.723v-125.74a244.91 244.91 0 0 1 244.916-244.91 53.021 53.021 0 0 0 37.501-15.54 53.014 53.014 0 0 0 15.534-37.5v-172.26A423.695 423.695 0 0 1 481.637 1200a423.677 423.677 0 0 1-119.589-237.951A423.695 423.695 0 0 1 0 542.868V119.181h357.542V0Zm0 251.471H132.29v291.397a291.4 291.4 0 0 0 225.252 283.791V251.471ZM1562.46 826.659V251.471h225.25v291.397a291.39 291.39 0 0 1-85.35 206.049 291.387 291.387 0 0 1-139.9 77.742ZM959.198 320l75.392 244.21H1280l-198.9 151.58L1159.7 960 960.801 808.422 761.906 960l76.992-245.896L640 562.527h245.413L959.198 320Z"/>
</symbol>

<symbol viewBox="-3 0 32 32" fill="#fff" id="svg-Popular" xmlns="http://www.w3.org/2000/svg">
<path d="M14 0h-2a2 2 0 0 0-2 2v28a2 2 0 0 0 2 2h2a2 2 0 0 0 2-2V2a2 2 0 0 0-2-2Zm10 16h-2a2 2 0 0 0-2 2v12a2 2 0 0 0 2 2h2a2 2 0 0 0 2-2V18a2 2 0 0 0-2-2ZM4 9H2a2 2 0 0 0-2 2v19a2 2 0 0 0 2 2h2a2 2 0 0 0 2-2V11a2 2 0 0 0-2-2Z" fill="#fff" fill-rule="evenodd"/>
</symbol>

<symbol viewBox="-1.5 0 20 20" fill="#fff" id="svg-ios" xmlns="http://www.w3.org/2000/svg">
<path d="M11.57 3.193c.73-.845 1.221-2.022 1.087-3.193-1.05.04-2.322.671-3.075 1.515-.677.749-1.267 1.946-1.108 3.094 1.172.087 2.368-.57 3.097-1.416m2.628 7.432c.03 3.027 2.77 4.034 2.801 4.047-.022.07-.438 1.435-1.444 2.845-.87 1.218-1.774 2.43-3.196 2.457-1.398.025-1.848-.794-3.447-.794-1.597 0-2.097.768-3.42.819-1.373.049-2.42-1.318-3.296-2.532C.403 14.984-.967 10.45.873 7.39c.915-1.52 2.548-2.482 4.321-2.506 1.348-.025 2.621.869 3.445.869.825 0 2.372-1.075 3.998-.917.68.027 2.591.263 3.818 1.984-.1.059-2.28 1.275-2.256 3.805" fill="#fff" fill-rule="evenodd"/>
</symbol>
  <symbol fill="inherit" xmlns="http://www.w3.org/2000/svg" viewBox="0 0 25 25" id="instagram">
    <path d="M15.3645 23.4376H9.11454C3.45829 23.4376 1.04163 21.0209 1.04163 15.3647V9.11467C1.04163 3.45842 3.45829 1.04175 9.11454 1.04175H15.3645C21.0208 1.04175 23.4375 3.45842 23.4375 9.11467V15.3647C23.4375 21.0209 21.0208 23.4376 15.3645 23.4376ZM9.11454 2.60425C4.31246 2.60425 2.60413 4.31258 2.60413 9.11467V15.3647C2.60413 20.1667 4.31246 21.8751 9.11454 21.8751H15.3645C20.1666 21.8751 21.875 20.1667 21.875 15.3647V9.11467C21.875 4.31258 20.1666 2.60425 15.3645 2.60425H9.11454Z"></path>
    <path d="M12.5 16.9271C11.3267 16.9243 10.2022 16.457 9.37258 15.6274C8.54293 14.7977 8.07563 13.6733 8.07288 12.5C8.07563 11.3267 8.54293 10.2023 9.37258 9.37262C10.2022 8.54298 11.3267 8.07567 12.5 8.07292C13.6732 8.07567 14.7977 8.54298 15.6273 9.37262C16.457 10.2023 16.9243 11.3267 16.927 12.5C16.9243 13.6733 16.457 14.7977 15.6273 15.6274C14.7977 16.457 13.6732 16.9243 12.5 16.9271V16.9271ZM12.5 9.63542C10.9166 9.63542 9.63538 10.9167 9.63538 12.5C9.63538 14.0833 10.9166 15.3646 12.5 15.3646C14.0833 15.3646 15.3645 14.0833 15.3645 12.5C15.3645 10.9167 14.0833 9.63542 12.5 9.63542ZM17.7083 7.8125C17.5729 7.8125 17.4375 7.78125 17.3125 7.72917C17.1875 7.67709 17.0729 7.60417 16.9687 7.51042C16.875 7.40625 16.7916 7.29167 16.7395 7.16667C16.6894 7.04083 16.6646 6.9063 16.6666 6.77084C16.6666 6.63542 16.6875 6.5 16.7395 6.375C16.802 6.23959 16.875 6.13542 16.9687 6.03125C17.0208 5.98959 17.0729 5.9375 17.125 5.90625C17.1875 5.86459 17.25 5.83334 17.3125 5.8125C17.5023 5.73356 17.7112 5.7122 17.9131 5.7511C18.115 5.79 18.3009 5.88743 18.4479 6.03125C18.5416 6.13542 18.6145 6.23959 18.6666 6.375C18.7187 6.5 18.75 6.63542 18.75 6.77084C18.75 6.90625 18.7187 7.04167 18.6666 7.16667C18.6145 7.29167 18.5416 7.40625 18.4479 7.51042C18.3437 7.60417 18.2291 7.67709 18.1041 7.72917C17.9791 7.78125 17.8437 7.8125 17.7083 7.8125Z"></path>
  </symbol>

  <symbol fill="inherit" xmlns="http://www.w3.org/2000/svg" viewBox="0 0 25 25" id="youtube">
    <path d="M17.7084 21.6147H7.29171C3.70837 21.6147 1.30212 19.2084 1.30212 15.6251V9.37508C1.30212 5.79175 3.70837 3.3855 7.29171 3.3855H17.7084C21.2917 3.3855 23.698 5.79175 23.698 9.37508V15.6251C23.698 19.2084 21.2917 21.6147 17.7084 21.6147ZM7.29171 4.948C4.60421 4.948 2.86462 6.68758 2.86462 9.37508V15.6251C2.86462 18.3126 4.60421 20.0522 7.29171 20.0522H17.7084C20.3959 20.0522 22.1355 18.3126 22.1355 15.6251V9.37508C22.1355 6.68758 20.3959 4.948 17.7084 4.948H7.29171Z"></path>
    <path d="M11.0312 16.1771C10.7292 16.1771 10.4375 16.1042 10.1771 15.9584C9.57292 15.6146 9.21875 14.9167 9.21875 14.0521V10.9688C9.21875 10.1042 9.5625 9.40628 10.1771 9.06253C10.7813 8.71878 11.5625 8.78128 12.3021 9.22919L14.875 10.7709C15.5833 11.1979 15.9896 11.8334 15.9896 12.5104C15.9896 13.1875 15.5833 13.8229 14.875 14.25L12.3021 15.7917C11.875 16.0417 11.4375 16.1771 11.0312 16.1771V16.1771ZM11.0312 10.3854C10.9988 10.385 10.9667 10.3921 10.9375 10.4063C10.8646 10.4479 10.7813 10.6354 10.7813 10.9584V14.0417C10.7813 14.3542 10.8646 14.5417 10.9375 14.5938C11.0208 14.6354 11.2187 14.6146 11.4896 14.4479L14.0625 12.9063C14.3229 12.75 14.4167 12.5938 14.4167 12.5C14.4167 12.4063 14.3229 12.2604 14.0625 12.0938L11.4896 10.5521C11.3021 10.4375 11.1354 10.3854 11.0312 10.3854V10.3854Z"></path>
  </symbol>

  <symbol fill="inherit" xmlns="http://www.w3.org/2000/svg" viewBox="0 0 25 25" id="facebook">
    <path d="M15.3646 23.6979H10.6771V16.1458H9.6875C9.08333 16.1458 8.59375 15.6562 8.59375 15.0521V13.0729C8.59375 12.4687 9.08333 11.9792 9.6875 11.9792H10.6771V9.375C10.6771 7.21875 12.4271 5.46875 14.5833 5.46875H17.3958C18 5.46875 18.4896 5.95833 18.4896 6.5625V9.0625C18.4896 9.66667 18 10.1562 17.3958 10.1562H15.3646V11.9792H17.3229C17.4844 11.9783 17.6441 12.0135 17.7904 12.082C17.9366 12.1506 18.0658 12.2508 18.1685 12.3755C18.2712 12.5001 18.3449 12.6461 18.3842 12.8027C18.4236 12.9594 18.4275 13.1229 18.3958 13.2812L18 15.2604C17.8958 15.7708 17.4479 16.1354 16.9271 16.1354H15.3646V23.6979ZM12.2396 22.1354H13.8021V14.5833H16.5521L16.7604 13.5417H13.8125V9.6875C13.8125 9.08333 14.3021 8.59375 14.9063 8.59375H16.9375V7.03125H14.5833C13.2917 7.03125 12.2396 8.08333 12.2396 9.375V13.5417H10.1562V14.5833H12.2396V22.1354Z"></path>
    <path d="M15.625 23.6978H9.37504C3.71879 23.6978 1.30212 21.2812 1.30212 15.6249V9.37492C1.30212 3.71867 3.71879 1.302 9.37504 1.302H15.625C21.2813 1.302 23.698 3.71867 23.698 9.37492V15.6249C23.698 21.2812 21.2813 23.6978 15.625 23.6978ZM9.37504 2.8645C4.57296 2.8645 2.86462 4.57284 2.86462 9.37492V15.6249C2.86462 20.427 4.57296 22.1353 9.37504 22.1353H15.625C20.4271 22.1353 22.1355 20.427 22.1355 15.6249V9.37492C22.1355 4.57284 20.4271 2.8645 15.625 2.8645H9.37504Z"></path>
  </symbol>

  <symbol fill="inherit" xmlns="http://www.w3.org/2000/svg" viewBox="0 0 20 20" id="close">
    <path d="M4.375 4.375L15.625 15.625" stroke-width="2" stroke-linecap="round" stroke-linejoin="round"></path>
    <path d="M4.375 15.625L15.625 4.375" stroke-width="2" stroke-linecap="round" stroke-linejoin="round"></path>
  </symbol>

  <symbol fill="inherit" xmlns="http://www.w3.org/2000/svg" viewBox="0 0 15 15" id="plus">
    <g clip-path="url(#clip0_103_316)">
      <path d="M13.125 6.5625H8.4375V1.875C8.4375 1.3575 8.0175 0.9375 7.5 0.9375C6.9825 0.9375 6.5625 1.3575 6.5625 1.875V6.5625H1.875C1.3575 6.5625 0.9375 6.9825 0.9375 7.5C0.9375 8.0175 1.3575 8.4375 1.875 8.4375H6.5625V13.125C6.5625 13.6425 6.9825 14.0625 7.5 14.0625C8.0175 14.0625 8.4375 13.6425 8.4375 13.125V8.4375H13.125C13.6425 8.4375 14.0625 8.0175 14.0625 7.5C14.0625 6.9825 13.6425 6.5625 13.125 6.5625Z"></path>
    </g>
    <defs>
      <clipPath id="clip0_103_316">
        <rect width="15" height="15" fill="white"></rect>
      </clipPath>
    </defs>
  </symbol>

  <symbol fill="inherit" xmlns="http://www.w3.org/2000/svg" viewBox="0 0 19 19" id="minus">
    <path d="M15.4895 8.3125H3.51055C2.8834 8.3125 2.375 8.84316 2.375 9.5C2.375 10.1568 2.8834 10.6875 3.51055 10.6875H15.4895C16.1166 10.6875 16.625 10.1568 16.625 9.5C16.625 8.84316 16.1166 8.3125 15.4895 8.3125Z"></path>
  </symbol>
</svg>